<?xml version="1.0" encoding="utf-8" ?>
<svg baseProfile="full" height="100%" version="1.1" width="100%" xmlns="http://www.w3.org/2000/svg" xmlns:ev="http://www.w3.org/2001/xml-events" xmlns:xlink="http://www.w3.org/1999/xlink"><defs /><g fill="#252525" id="rack"><rect height="1in" width="20in" x="0in" y="0in" /><rect height="21.0in" width="1.125in" x="0in" y="1in" /><rect height="21.0in" width="1.125in" x="18.875in" y="1in" /><rect height="1in" width="20in" x="0in" y="22.0in" /><g fill="white" id="holes" style="font-size:.5in;"><rect height=".375in" width=".375in" x=".625in" y="1.25in" /><rect height=".375in" width=".375in" x="19in" y="1.25in" /><rect height=".375in" width=".375in" x=".625in" y="1.875in" /><rect height=".375in" width=".375in" x="19in" y="1.875in" /><rect height=".375in" width=".375in" x=".625in" y="2.5in" /><rect height=".375in" width=".375in" x="19in" y="2.5in" /><text x="0.05in" y="2.25in">12</text><text x="19.5in" y="2.25in">12</text><rect height=".375in" width=".375in" x=".625in" y="3.0in" /><rect height=".375in" width=".375in" x="19in" y="3.0in" /><rect height=".375in" width=".375in" x=".625in" y="3.625in" /><rect height=".375in" width=".375in" x="19in" y="3.625in" /><rect height=".375in" width=".375in" x=".625in" y="4.25in" /><rect height=".375in" width=".375in" x="19in" y="4.25in" /><text x="0.05in" y="4.0in">11</text><text x="19.5in" y="4.0in">11</text><rect height=".375in" width=".375in" x=".625in" y="4.75in" /><rect height=".375in" width=".375in" x="19in" y="4.75in" /><rect height=".375in" width=".375in" x=".625in" y="5.375in" /><rect height=".375in" width=".375in" x="19in" y="5.375in" /><rect height=".375in" width=".375in" x=".625in" y="6.0in" /><rect height=".375in" width=".375in" x="19in" y="6.0in" /><text x="0.05in" y="5.75in">10</text><text x="19.5in" y="5.75in">10</text><rect height=".375in" width=".375in" x=".625in" y="6.5in" /><rect height=".375in" width=".375in" x="19in" y="6.5in" /><rect height=".375in" width=".375in" x=".625in" y="7.125in" /><rect height=".375in" width=".375in" x="19in" y="7.125in" /><rect height=".375in" width=".375in" x=".625in" y="7.75in" /><rect height=".375in" width=".375in" x="19in" y="7.75in" /><text x="0.05in" y="7.5in">9</text><text x="19.5in" y="7.5in">9</text><rect height=".375in" width=".375in" x=".625in" y="8.25in" /><rect height=".375in" width=".375in" x="19in" y="8.25in" /><rect height=".375in" width=".375in" x=".625in" y="8.875in" /><rect height=".375in" width=".375in" x="19in" y="8.875in" /><rect height=".375in" width=".375in" x=".625in" y="9.5in" /><rect height=".375in" width=".375in" x="19in" y="9.5in" /><text x="0.05in" y="9.25in">8</text><text x="19.5in" y="9.25in">8</text><rect height=".375in" width=".375in" x=".625in" y="10.0in" /><rect height=".375in" width=".375in" x="19in" y="10.0in" /><rect height=".375in" width=".375in" x=".625in" y="10.625in" /><rect height=".375in" width=".375in" x="19in" y="10.625in" /><rect height=".375in" width=".375in" x=".625in" y="11.25in" /><rect height=".375in" width=".375in" x="19in" y="11.25in" /><text x="0.05in" y="11.0in">7</text><text x="19.5in" y="11.0in">7</text><rect height=".375in" width=".375in" x=".625in" y="11.75in" /><rect height=".375in" width=".375in" x="19in" y="11.75in" /><rect height=".375in" width=".375in" x=".625in" y="12.375in" /><rect height=".375in" width=".375in" x="19in" y="12.375in" /><rect height=".375in" width=".375in" x=".625in" y="13.0in" /><rect height=".375in" width=".375in" x="19in" y="13.0in" /><text x="0.05in" y="12.75in">6</text><text x="19.5in" y="12.75in">6</text><rect height=".375in" width=".375in" x=".625in" y="13.5in" /><rect height=".375in" width=".375in" x="19in" y="13.5in" /><rect height=".375in" width=".375in" x=".625in" y="14.125in" /><rect height=".375in" width=".375in" x="19in" y="14.125in" /><rect height=".375in" width=".375in" x=".625in" y="14.75in" /><rect height=".375in" width=".375in" x="19in" y="14.75in" /><text x="0.05in" y="14.5in">5</text><text x="19.5in" y="14.5in">5</text><rect height=".375in" width=".375in" x=".625in" y="15.25in" /><rect height=".375in" width=".375in" x="19in" y="15.25in" /><rect height=".375in" width=".375in" x=".625in" y="15.875in" /><rect height=".375in" width=".375in" x="19in" y="15.875in" /><rect height=".375in" width=".375in" x=".625in" y="16.5in" /><rect height=".375in" width=".375in" x="19in" y="16.5in" /><text x="0.05in" y="16.25in">4</text><text x="19.5in" y="16.25in">4</text><rect height=".375in" width=".375in" x=".625in" y="17.0in" /><rect height=".375in" width=".375in" x="19in" y="17.0in" /><rect height=".375in" width=".375in" x=".625in" y="17.625in" /><rect height=".375in" width=".375in" x="19in" y="17.625in" /><rect height=".375in" width=".375in" x=".625in" y="18.25in" /><rect height=".375in" width=".375in" x="19in" y="18.25in" /><text x="0.05in" y="18.0in">3</text><text x="19.5in" y="18.0in">3</text><rect height=".375in" width=".375in" x=".625in" y="18.75in" /><rect height=".375in" width=".375in" x="19in" y="18.75in" /><rect height=".375in" width=".375in" x=".625in" y="19.375in" /><rect height=".375in" width=".375in" x="19in" y="19.375in" /><rect height=".375in" width=".375in" x=".625in" y="20.0in" /><rect height=".375in" width=".375in" x="19in" y="20.0in" /><text x="0.05in" y="19.75in">2</text><text x="19.5in" y="19.75in">2</text><rect height=".375in" width=".375in" x=".625in" y="20.5in" /><rect height=".375in" width=".375in" x="19in" y="20.5in" /><rect height=".375in" width=".375in" x=".625in" y="21.125in" /><rect height=".375in" width=".375in" x="19in" y="21.125in" /><rect height=".375in" width=".375in" x=".625in" y="21.75in" /><rect height=".375in" width=".375in" x="19in" y="21.75in" /><text x="0.05in" y="21.5in">1</text><text x="19.5in" y="21.5in">1</text></g></g></svg>