<?xml version="1.0" encoding="utf-8" ?>
<svg baseProfile="full" height="100%" version="1.1" width="100%" xmlns="http://www.w3.org/2000/svg" xmlns:ev="http://www.w3.org/2001/xml-events" xmlns:xlink="http://www.w3.org/1999/xlink"><defs /><g fill="#252525" id="rack"><rect height="1in" width="20in" x="0in" y="0in" /><rect height="21.0in" width="1.125in" x="0in" y="1in" /><rect height="21.0in" width="1.125in" x="18.875in" y="1in" /><rect height="1in" width="20in" x="0in" y="22.0in" /><g fill="white" id="holes" style="font-size:.5in;"><rect height=".375in" width=".375in" x=".625in" y="1.0625in" /><rect height=".375in" width=".375in" x="19in" y="1.0625in" /><rect height=".375in" width=".375in" x=".625in" y="1.6875in" /><rect height=".375in" width=".375in" x="19in" y="1.6875in" /><rect height=".375in" width=".375in" x=".625in" y="2.3125in" /><rect height=".375in" width=".375in" x="19in" y="2.3125in" /><text x="0.05in" y="2.0625in">12</text><text x="19.5in" y="2.0625in">12</text><rect height=".375in" width=".375in" x=".625in" y="2.8125in" /><rect height=".375in" width=".375in" x="19in" y="2.8125in" /><rect height=".375in" width=".375in" x=".625in" y="3.4375in" /><rect height=".375in" width=".375in" x="19in" y="3.4375in" /><rect height=".375in" width=".375in" x=".625in" y="4.0625in" /><rect height=".375in" width=".375in" x="19in" y="4.0625in" /><text x="0.05in" y="3.8125in">11</text><text x="19.5in" y="3.8125in">11</text><rect height=".375in" width=".375in" x=".625in" y="4.5625in" /><rect height=".375in" width=".375in" x="19in" y="4.5625in" /><rect height=".375in" width=".375in" x=".625in" y="5.1875in" /><rect height=".375in" width=".375in" x="19in" y="5.1875in" /><rect height=".375in" width=".375in" x=".625in" y="5.8125in" /><rect height=".375in" width=".375in" x="19in" y="5.8125in" /><text x="0.05in" y="5.5625in">10</text><text x="19.5in" y="5.5625in">10</text><rect height=".375in" width=".375in" x=".625in" y="6.3125in" /><rect height=".375in" width=".375in" x="19in" y="6.3125in" /><rect height=".375in" width=".375in" x=".625in" y="6.9375in" /><rect height=".375in" width=".375in" x="19in" y="6.9375in" /><rect height=".375in" width=".375in" x=".625in" y="7.5625in" /><rect height=".375in" width=".375in" x="19in" y="7.5625in" /><text x="0.05in" y="7.3125in">9</text><text x="19.5in" y="7.3125in">9</text><rect height=".375in" width=".375in" x=".625in" y="8.0625in" /><rect height=".375in" width=".375in" x="19in" y="8.0625in" /><rect height=".375in" width=".375in" x=".625in" y="8.6875in" /><rect height=".375in" width=".375in" x="19in" y="8.6875in" /><rect height=".375in" width=".375in" x=".625in" y="9.3125in" /><rect height=".375in" width=".375in" x="19in" y="9.3125in" /><text x="0.05in" y="9.0625in">8</text><text x="19.5in" y="9.0625in">8</text><rect height=".375in" width=".375in" x=".625in" y="9.8125in" /><rect height=".375in" width=".375in" x="19in" y="9.8125in" /><rect height=".375in" width=".375in" x=".625in" y="10.4375in" /><rect height=".375in" width=".375in" x="19in" y="10.4375in" /><rect height=".375in" width=".375in" x=".625in" y="11.0625in" /><rect height=".375in" width=".375in" x="19in" y="11.0625in" /><text x="0.05in" y="10.8125in">7</text><text x="19.5in" y="10.8125in">7</text><rect height=".375in" width=".375in" x=".625in" y="11.5625in" /><rect height=".375in" width=".375in" x="19in" y="11.5625in" /><rect height=".375in" width=".375in" x=".625in" y="12.1875in" /><rect height=".375in" width=".375in" x="19in" y="12.1875in" /><rect height=".375in" width=".375in" x=".625in" y="12.8125in" /><rect height=".375in" width=".375in" x="19in" y="12.8125in" /><text x="0.05in" y="12.5625in">6</text><text x="19.5in" y="12.5625in">6</text><rect height=".375in" width=".375in" x=".625in" y="13.3125in" /><rect height=".375in" width=".375in" x="19in" y="13.3125in" /><rect height=".375in" width=".375in" x=".625in" y="13.9375in" /><rect height=".375in" width=".375in" x="19in" y="13.9375in" /><rect height=".375in" width=".375in" x=".625in" y="14.5625in" /><rect height=".375in" width=".375in" x="19in" y="14.5625in" /><text x="0.05in" y="14.3125in">5</text><text x="19.5in" y="14.3125in">5</text><rect height=".375in" width=".375in" x=".625in" y="15.0625in" /><rect height=".375in" width=".375in" x="19in" y="15.0625in" /><rect height=".375in" width=".375in" x=".625in" y="15.6875in" /><rect height=".375in" width=".375in" x="19in" y="15.6875in" /><rect height=".375in" width=".375in" x=".625in" y="16.3125in" /><rect height=".375in" width=".375in" x="19in" y="16.3125in" /><text x="0.05in" y="16.0625in">4</text><text x="19.5in" y="16.0625in">4</text><rect height=".375in" width=".375in" x=".625in" y="16.8125in" /><rect height=".375in" width=".375in" x="19in" y="16.8125in" /><rect height=".375in" width=".375in" x=".625in" y="17.4375in" /><rect height=".375in" width=".375in" x="19in" y="17.4375in" /><rect height=".375in" width=".375in" x=".625in" y="18.0625in" /><rect height=".375in" width=".375in" x="19in" y="18.0625in" /><text x="0.05in" y="17.8125in">3</text><text x="19.5in" y="17.8125in">3</text><rect height=".375in" width=".375in" x=".625in" y="18.5625in" /><rect height=".375in" width=".375in" x="19in" y="18.5625in" /><rect height=".375in" width=".375in" x=".625in" y="19.1875in" /><rect height=".375in" width=".375in" x="19in" y="19.1875in" /><rect height=".375in" width=".375in" x=".625in" y="19.8125in" /><rect height=".375in" width=".375in" x="19in" y="19.8125in" /><text x="0.05in" y="19.5625in">2</text><text x="19.5in" y="19.5625in">2</text><rect height=".375in" width=".375in" x=".625in" y="20.3125in" /><rect height=".375in" width=".375in" x="19in" y="20.3125in" /><rect height=".375in" width=".375in" x=".625in" y="20.9375in" /><rect height=".375in" width=".375in" x="19in" y="20.9375in" /><rect height=".375in" width=".375in" x=".625in" y="21.5625in" /><rect height=".375in" width=".375in" x="19in" y="21.5625in" /><text x="0.05in" y="21.3125in">1</text><text x="19.5in" y="21.3125in">1</text><line stroke="white" stroke-width=".025in" x1=".1in" x2="1.025in" y1="2.75in" y2="2.75in" /><line stroke="white" stroke-width=".025in" x1=".1in" x2="1.025in" y1="4.5in" y2="4.5in" /><line stroke="white" stroke-width=".025in" x1=".1in" x2="1.025in" y1="6.25in" y2="6.25in" /><line stroke="white" stroke-width=".025in" x1=".1in" x2="1.025in" y1="8.0in" y2="8.0in" /><line stroke="white" stroke-width=".025in" x1=".1in" x2="1.025in" y1="9.75in" y2="9.75in" /><line stroke="white" stroke-width=".025in" x1=".1in" x2="1.025in" y1="11.5in" y2="11.5in" /><line stroke="white" stroke-width=".025in" x1=".1in" x2="1.025in" y1="13.25in" y2="13.25in" /><line stroke="white" stroke-width=".025in" x1=".1in" x2="1.025in" y1="15.0in" y2="15.0in" /><line stroke="white" stroke-width=".025in" x1=".1in" x2="1.025in" y1="16.75in" y2="16.75in" /><line stroke="white" stroke-width=".025in" x1=".1in" x2="1.025in" y1="18.5in" y2="18.5in" /><line stroke="white" stroke-width=".025in" x1=".1in" x2="1.025in" y1="20.25in" y2="20.25in" /></g></g></svg>