<?xml version="1.0" encoding="utf-8" ?>
<svg baseProfile="full" height="100%" version="1.1" width="100%" xmlns="http://www.w3.org/2000/svg" xmlns:ev="http://www.w3.org/2001/xml-events" xmlns:xlink="http://www.w3.org/1999/xlink"><defs><linearGradient id="angle_lin_grad" x1="0" x2="1" y1="0.35" y2="0.75"><stop offset="15%" stop-color="black" /><stop offset="50%" stop-color="grey" /><stop offset="85%" stop-color="black" /></linearGradient></defs><g fill="#252525" id="rack"><rect height="1in" width="20in" x="0in" y="0in" /><rect height="21.0in" width="1.125in" x="0in" y="1in" /><rect height="21.0in" width="1.125in" x="18.875in" y="1in" /><rect height="1in" width="20in" x="0in" y="22.0in" /><g fill="white" id="holes" style="font-size:.5in;"><rect height=".375in" width=".375in" x=".625in" y="1.0625in" /><rect height=".375in" width=".375in" x="19in" y="1.0625in" /><rect height=".375in" width=".375in" x=".625in" y="1.6875in" /><rect height=".375in" width=".375in" x="19in" y="1.6875in" /><rect height=".375in" width=".375in" x=".625in" y="2.3125in" /><rect height=".375in" width=".375in" x="19in" y="2.3125in" /><text x="0.05in" y="2.0625in">12</text><text x="19.5in" y="2.0625in">12</text><rect height=".375in" width=".375in" x=".625in" y="2.8125in" /><rect height=".375in" width=".375in" x="19in" y="2.8125in" /><rect height=".375in" width=".375in" x=".625in" y="3.4375in" /><rect height=".375in" width=".375in" x="19in" y="3.4375in" /><rect height=".375in" width=".375in" x=".625in" y="4.0625in" /><rect height=".375in" width=".375in" x="19in" y="4.0625in" /><text x="0.05in" y="3.8125in">11</text><text x="19.5in" y="3.8125in">11</text><rect height=".375in" width=".375in" x=".625in" y="4.5625in" /><rect height=".375in" width=".375in" x="19in" y="4.5625in" /><rect height=".375in" width=".375in" x=".625in" y="5.1875in" /><rect height=".375in" width=".375in" x="19in" y="5.1875in" /><rect height=".375in" width=".375in" x=".625in" y="5.8125in" /><rect height=".375in" width=".375in" x="19in" y="5.8125in" /><text x="0.05in" y="5.5625in">10</text><text x="19.5in" y="5.5625in">10</text><rect height=".375in" width=".375in" x=".625in" y="6.3125in" /><rect height=".375in" width=".375in" x="19in" y="6.3125in" /><rect height=".375in" width=".375in" x=".625in" y="6.9375in" /><rect height=".375in" width=".375in" x="19in" y="6.9375in" /><rect height=".375in" width=".375in" x=".625in" y="7.5625in" /><rect height=".375in" width=".375in" x="19in" y="7.5625in" /><text x="0.05in" y="7.3125in">9</text><text x="19.5in" y="7.3125in">9</text><rect height=".375in" width=".375in" x=".625in" y="8.0625in" /><rect height=".375in" width=".375in" x="19in" y="8.0625in" /><rect height=".375in" width=".375in" x=".625in" y="8.6875in" /><rect height=".375in" width=".375in" x="19in" y="8.6875in" /><rect height=".375in" width=".375in" x=".625in" y="9.3125in" /><rect height=".375in" width=".375in" x="19in" y="9.3125in" /><text x="0.05in" y="9.0625in">8</text><text x="19.5in" y="9.0625in">8</text><rect height=".375in" width=".375in" x=".625in" y="9.8125in" /><rect height=".375in" width=".375in" x="19in" y="9.8125in" /><rect height=".375in" width=".375in" x=".625in" y="10.4375in" /><rect height=".375in" width=".375in" x="19in" y="10.4375in" /><rect height=".375in" width=".375in" x=".625in" y="11.0625in" /><rect height=".375in" width=".375in" x="19in" y="11.0625in" /><text x="0.05in" y="10.8125in">7</text><text x="19.5in" y="10.8125in">7</text><rect height=".375in" width=".375in" x=".625in" y="11.5625in" /><rect height=".375in" width=".375in" x="19in" y="11.5625in" /><rect height=".375in" width=".375in" x=".625in" y="12.1875in" /><rect height=".375in" width=".375in" x="19in" y="12.1875in" /><rect height=".375in" width=".375in" x=".625in" y="12.8125in" /><rect height=".375in" width=".375in" x="19in" y="12.8125in" /><text x="0.05in" y="12.5625in">6</text><text x="19.5in" y="12.5625in">6</text><rect height=".375in" width=".375in" x=".625in" y="13.3125in" /><rect height=".375in" width=".375in" x="19in" y="13.3125in" /><rect height=".375in" width=".375in" x=".625in" y="13.9375in" /><rect height=".375in" width=".375in" x="19in" y="13.9375in" /><rect height=".375in" width=".375in" x=".625in" y="14.5625in" /><rect height=".375in" width=".375in" x="19in" y="14.5625in" /><text x="0.05in" y="14.3125in">5</text><text x="19.5in" y="14.3125in">5</text><rect height=".375in" width=".375in" x=".625in" y="15.0625in" /><rect height=".375in" width=".375in" x="19in" y="15.0625in" /><rect height=".375in" width=".375in" x=".625in" y="15.6875in" /><rect height=".375in" width=".375in" x="19in" y="15.6875in" /><rect height=".375in" width=".375in" x=".625in" y="16.3125in" /><rect height=".375in" width=".375in" x="19in" y="16.3125in" /><text x="0.05in" y="16.0625in">4</text><text x="19.5in" y="16.0625in">4</text><rect height=".375in" width=".375in" x=".625in" y="16.8125in" /><rect height=".375in" width=".375in" x="19in" y="16.8125in" /><rect height=".375in" width=".375in" x=".625in" y="17.4375in" /><rect height=".375in" width=".375in" x="19in" y="17.4375in" /><rect height=".375in" width=".375in" x=".625in" y="18.0625in" /><rect height=".375in" width=".375in" x="19in" y="18.0625in" /><text x="0.05in" y="17.8125in">3</text><text x="19.5in" y="17.8125in">3</text><rect height=".375in" width=".375in" x=".625in" y="18.5625in" /><rect height=".375in" width=".375in" x="19in" y="18.5625in" /><rect height=".375in" width=".375in" x=".625in" y="19.1875in" /><rect height=".375in" width=".375in" x="19in" y="19.1875in" /><rect height=".375in" width=".375in" x=".625in" y="19.8125in" /><rect height=".375in" width=".375in" x="19in" y="19.8125in" /><text x="0.05in" y="19.5625in">2</text><text x="19.5in" y="19.5625in">2</text><rect height=".375in" width=".375in" x=".625in" y="20.3125in" /><rect height=".375in" width=".375in" x="19in" y="20.3125in" /><rect height=".375in" width=".375in" x=".625in" y="20.9375in" /><rect height=".375in" width=".375in" x="19in" y="20.9375in" /><rect height=".375in" width=".375in" x=".625in" y="21.5625in" /><rect height=".375in" width=".375in" x="19in" y="21.5625in" /><text x="0.05in" y="21.3125in">1</text><text x="19.5in" y="21.3125in">1</text><line stroke="white" stroke-width=".025in" x1=".1in" x2="1.025in" y1="2.75in" y2="2.75in" /><line stroke="white" stroke-width=".025in" x1="18.975in" x2="19.9in" y1="2.75in" y2="2.75in" /><line stroke="white" stroke-width=".025in" x1=".1in" x2="1.025in" y1="4.5in" y2="4.5in" /><line stroke="white" stroke-width=".025in" x1="18.975in" x2="19.9in" y1="4.5in" y2="4.5in" /><line stroke="white" stroke-width=".025in" x1=".1in" x2="1.025in" y1="6.25in" y2="6.25in" /><line stroke="white" stroke-width=".025in" x1="18.975in" x2="19.9in" y1="6.25in" y2="6.25in" /><line stroke="white" stroke-width=".025in" x1=".1in" x2="1.025in" y1="8.0in" y2="8.0in" /><line stroke="white" stroke-width=".025in" x1="18.975in" x2="19.9in" y1="8.0in" y2="8.0in" /><line stroke="white" stroke-width=".025in" x1=".1in" x2="1.025in" y1="9.75in" y2="9.75in" /><line stroke="white" stroke-width=".025in" x1="18.975in" x2="19.9in" y1="9.75in" y2="9.75in" /><line stroke="white" stroke-width=".025in" x1=".1in" x2="1.025in" y1="11.5in" y2="11.5in" /><line stroke="white" stroke-width=".025in" x1="18.975in" x2="19.9in" y1="11.5in" y2="11.5in" /><line stroke="white" stroke-width=".025in" x1=".1in" x2="1.025in" y1="13.25in" y2="13.25in" /><line stroke="white" stroke-width=".025in" x1="18.975in" x2="19.9in" y1="13.25in" y2="13.25in" /><line stroke="white" stroke-width=".025in" x1=".1in" x2="1.025in" y1="15.0in" y2="15.0in" /><line stroke="white" stroke-width=".025in" x1="18.975in" x2="19.9in" y1="15.0in" y2="15.0in" /><line stroke="white" stroke-width=".025in" x1=".1in" x2="1.025in" y1="16.75in" y2="16.75in" /><line stroke="white" stroke-width=".025in" x1="18.975in" x2="19.9in" y1="16.75in" y2="16.75in" /><line stroke="white" stroke-width=".025in" x1=".1in" x2="1.025in" y1="18.5in" y2="18.5in" /><line stroke="white" stroke-width=".025in" x1="18.975in" x2="19.9in" y1="18.5in" y2="18.5in" /><line stroke="white" stroke-width=".025in" x1=".1in" x2="1.025in" y1="20.25in" y2="20.25in" /><line stroke="white" stroke-width=".025in" x1="18.975in" x2="19.9in" y1="20.25in" y2="20.25in" /></g></g><g id="nas"><rect fill="url(#angle_lin_grad)" height="3.5in" width="19in" x=".5in" y="4.5in" /><circle cx=".8125in" cy="4.75in" fill="#555555" r=".1in" /><circle cx=".8125in" cy="7.75in" fill="#555555" r=".1in" /><circle cx="19.1875in" cy="4.75in" fill="#555555" r=".1in" /><circle cx="19.1875in" cy="7.75in" fill="#555555" r=".1in" /></g><g><rect fill="#666666" height="1in" width="4in" x="14.524999999999999in" y="4.625in" /></g><g><rect fill="#666666" height="1in" width="4in" x="10.175in" y="4.625in" /></g><g><rect fill="#666666" height="1in" width="4in" x="5.825in" y="4.625in" /></g><g><rect fill="#666666" height="1in" width="4in" x="1.475in" y="4.625in" /></g><g><rect fill="#666666" height="1in" width="4in" x="14.524999999999999in" y="5.75in" /></g><g><rect fill="#666666" height="1in" width="4in" x="10.175in" y="5.75in" /></g><g><rect fill="#666666" height="1in" width="4in" x="5.825in" y="5.75in" /></g><g><rect fill="#666666" height="1in" width="4in" x="1.475in" y="5.75in" /></g><g><rect fill="#666666" height="1in" width="4in" x="14.524999999999999in" y="6.875in" /></g><g><rect fill="#666666" height="1in" width="4in" x="10.175in" y="6.875in" /></g><g><rect fill="#666666" height="1in" width="4in" x="5.825in" y="6.875in" /></g><g><rect fill="#666666" height="1in" width="4in" x="1.475in" y="6.875in" /></g><g style="font-size: .75in; stroke: white; fill: black; font-family: Arial"><text x="20.25in" y="5.5in">Name: nas, ip: 1.1.1.1, </text></g><g id="switch"><rect fill="url(#angle_lin_grad)" height="1.75in" width="19in" x=".5in" y="2.75in" /><circle cx=".8125in" cy="3.0in" fill="#555555" r=".1in" /><circle cx=".8125in" cy="4.25in" fill="#555555" r=".1in" /><circle cx="19.1875in" cy="3.0in" fill="#555555" r=".1in" /><circle cx="19.1875in" cy="4.25in" fill="#555555" r=".1in" /></g><g><rect fill="#444444" height="13.5mm" width="16mm" x="17.6850394in" y="3.034252in" /><rect height="9mm" width="11.6mm" x="17.7641732in" y="3.1228346in" /><rect height="2mm" width="6.35mm" x="17.875in" y="3.4377953199999998in" /></g><g><rect fill="#444444" height="13.5mm" width="16mm" x="17.6850394in" y="3.6842520000000003in" /><rect height="9mm" width="11.6mm" x="17.7641732in" y="3.7728346000000004in" /><rect height="2mm" width="6.35mm" x="17.875in" y="4.087795320000001in" /></g><g><rect fill="#444444" height="13.5mm" width="16mm" x="16.9850394in" y="3.034252in" /><rect height="9mm" width="11.6mm" x="17.0641732in" y="3.1228346in" /><rect height="2mm" width="6.35mm" x="17.175in" y="3.4377953199999998in" /></g><g><rect fill="#444444" height="13.5mm" width="16mm" x="16.9850394in" y="3.6842520000000003in" /><rect height="9mm" width="11.6mm" x="17.0641732in" y="3.7728346000000004in" /><rect height="2mm" width="6.35mm" x="17.175in" y="4.087795320000001in" /></g><g><rect fill="#444444" height="13.5mm" width="16mm" x="16.285039400000002in" y="3.034252in" /><rect height="9mm" width="11.6mm" x="16.3641732in" y="3.1228346in" /><rect height="2mm" width="6.35mm" x="16.475in" y="3.4377953199999998in" /></g><g><rect fill="#444444" height="13.5mm" width="16mm" x="16.285039400000002in" y="3.6842520000000003in" /><rect height="9mm" width="11.6mm" x="16.3641732in" y="3.7728346000000004in" /><rect height="2mm" width="6.35mm" x="16.475in" y="4.087795320000001in" /></g><g><rect fill="#444444" height="13.5mm" width="16mm" x="15.585039400000001in" y="3.034252in" /><rect height="9mm" width="11.6mm" x="15.6641732in" y="3.1228346in" /><rect height="2mm" width="6.35mm" x="15.775in" y="3.4377953199999998in" /></g><g><rect fill="#444444" height="13.5mm" width="16mm" x="15.585039400000001in" y="3.6842520000000003in" /><rect height="9mm" width="11.6mm" x="15.6641732in" y="3.7728346000000004in" /><rect height="2mm" width="6.35mm" x="15.775in" y="4.087795320000001in" /></g><g><rect fill="#444444" height="13.5mm" width="16mm" x="14.8850394in" y="3.034252in" /><rect height="9mm" width="11.6mm" x="14.9641732in" y="3.1228346in" /><rect height="2mm" width="6.35mm" x="15.075in" y="3.4377953199999998in" /></g><g><rect fill="#444444" height="13.5mm" width="16mm" x="14.8850394in" y="3.6842520000000003in" /><rect height="9mm" width="11.6mm" x="14.9641732in" y="3.7728346000000004in" /><rect height="2mm" width="6.35mm" x="15.075in" y="4.087795320000001in" /></g><g><rect fill="#444444" height="13.5mm" width="16mm" x="14.1850394in" y="3.034252in" /><rect height="9mm" width="11.6mm" x="14.2641732in" y="3.1228346in" /><rect height="2mm" width="6.35mm" x="14.375in" y="3.4377953199999998in" /></g><g><rect fill="#444444" height="13.5mm" width="16mm" x="14.1850394in" y="3.6842520000000003in" /><rect height="9mm" width="11.6mm" x="14.2641732in" y="3.7728346000000004in" /><rect height="2mm" width="6.35mm" x="14.375in" y="4.087795320000001in" /></g><g><rect fill="#444444" height="13.5mm" width="16mm" x="13.485039400000002in" y="3.034252in" /><rect height="9mm" width="11.6mm" x="13.5641732in" y="3.1228346in" /><rect height="2mm" width="6.35mm" x="13.675in" y="3.4377953199999998in" /></g><g><rect fill="#444444" height="13.5mm" width="16mm" x="13.485039400000002in" y="3.6842520000000003in" /><rect height="9mm" width="11.6mm" x="13.5641732in" y="3.7728346000000004in" /><rect height="2mm" width="6.35mm" x="13.675in" y="4.087795320000001in" /></g><g><rect fill="#444444" height="13.5mm" width="16mm" x="12.785039400000002in" y="3.034252in" /><rect height="9mm" width="11.6mm" x="12.864173200000002in" y="3.1228346in" /><rect height="2mm" width="6.35mm" x="12.975000000000001in" y="3.4377953199999998in" /></g><g><rect fill="#444444" height="13.5mm" width="16mm" x="12.785039400000002in" y="3.6842520000000003in" /><rect height="9mm" width="11.6mm" x="12.864173200000002in" y="3.7728346000000004in" /><rect height="2mm" width="6.35mm" x="12.975000000000001in" y="4.087795320000001in" /></g><g><rect fill="#444444" height="13.5mm" width="16mm" x="12.085039400000001in" y="3.034252in" /><rect height="9mm" width="11.6mm" x="12.1641732in" y="3.1228346in" /><rect height="2mm" width="6.35mm" x="12.275in" y="3.4377953199999998in" /></g><g><rect fill="#444444" height="13.5mm" width="16mm" x="12.085039400000001in" y="3.6842520000000003in" /><rect height="9mm" width="11.6mm" x="12.1641732in" y="3.7728346000000004in" /><rect height="2mm" width="6.35mm" x="12.275in" y="4.087795320000001in" /></g><g><rect fill="#444444" height="13.5mm" width="16mm" x="11.3850394in" y="3.034252in" /><rect height="9mm" width="11.6mm" x="11.4641732in" y="3.1228346in" /><rect height="2mm" width="6.35mm" x="11.575in" y="3.4377953199999998in" /></g><g><rect fill="#444444" height="13.5mm" width="16mm" x="11.3850394in" y="3.6842520000000003in" /><rect height="9mm" width="11.6mm" x="11.4641732in" y="3.7728346000000004in" /><rect height="2mm" width="6.35mm" x="11.575in" y="4.087795320000001in" /></g><g><rect fill="#444444" height="13.5mm" width="16mm" x="10.6850394in" y="3.034252in" /><rect height="9mm" width="11.6mm" x="10.7641732in" y="3.1228346in" /><rect height="2mm" width="6.35mm" x="10.875in" y="3.4377953199999998in" /></g><g><rect fill="#444444" height="13.5mm" width="16mm" x="10.6850394in" y="3.6842520000000003in" /><rect height="9mm" width="11.6mm" x="10.7641732in" y="3.7728346000000004in" /><rect height="2mm" width="6.35mm" x="10.875in" y="4.087795320000001in" /></g><g><rect fill="#444444" height="13.5mm" width="16mm" x="9.985039400000002in" y="3.034252in" /><rect height="9mm" width="11.6mm" x="10.0641732in" y="3.1228346in" /><rect height="2mm" width="6.35mm" x="10.175in" y="3.4377953199999998in" /></g><g><rect fill="#444444" height="13.5mm" width="16mm" x="9.985039400000002in" y="3.6842520000000003in" /><rect height="9mm" width="11.6mm" x="10.0641732in" y="3.7728346000000004in" /><rect height="2mm" width="6.35mm" x="10.175in" y="4.087795320000001in" /></g><g style="font-size: .75in; stroke: white; fill: black; font-family: Arial"><text x="20.25in" y="3.75in">Name: switch, ip: 1.1.1.1, </text></g></svg>